# AST/ASF file generated using VICON BodyLanguage
# -----------------------------------------------
:version 1.10
:name VICON
:units
  mass 1.0
  length 0.45
  angle deg
:documentation
   .ast/.asf automatically generated from VICON data using
   VICON BodyBuilder and BodyLanguage model FoxedUp or BRILLIANT.MOD
:root
   order TX TY TZ RX RY RZ
   axis XYZ
   position 0 0 0  
   orientation 0 0 0 
:bonedata
  begin
     id 1 
     name lhipjoint
     direction 0.440178 -0.822639 0.359871 
     length 2.53113 
     axis 0 0 0  XYZ
  end
  begin
     id 2 
     name lfemur
     direction 0.34202 -0.939693 0  
     length 7.88132  
     axis 0 0 20  XYZ
    dof rx ry rz
    limits (-160.0 20.0)
           (-70.0 70.0)
           (-60.0 70.0)
  end
  begin
     id 3 
     name ltibia
     direction 0.34202 -0.939693 0   
     length 8.43783   
     axis 0 0 20   XYZ
    dof rx
    limits (-10.0 170.0)
  end
  begin
     id 4 
     name lfoot
     direction 0.0886351 -0.243523 0.965837   
     length 2.63414   
     axis -90 7.62852e-016 20   XYZ
    dof rx rz
    limits (-45.0 90.0)
           (-70.0 20.0)
  end
  begin
     id 5 
     name ltoes
     direction 1.53703e-011 -4.21717e-011 1   
     length 1.31427   
     axis -90 7.62852e-016 20   XYZ
    dof rx
    limits (-90.0 20.0)
  end
  begin
     id 6 
     name rhipjoint
     direction -0.399779 -0.839773 0.367367   
     length 2.47948  
     axis 0 0 0  XYZ 
  end
  begin
     id 7 
     name rfemur
     direction -0.34202 -0.939693 0   
     length 7.74806   
     axis 0 0 -20   XYZ
    dof rx ry rz
    limits (-160.0 20.0)
           (-70.0 70.0)
           (-70.0 60.0)
  end
  begin
     id 8 
     name rtibia
     direction -0.34202 -0.939693 0   
     length 8.74432   
     axis 0 0 -20   XYZ
    dof rx
    limits (-10.0 170.0)
 end
 begin
     id 9 
     name rfoot
     direction -0.108514 -0.298139 0.948334   
     length 2.66102  
     axis -90 -7.62852e-016 -20   XYZ
    dof rx rz
    limits (-45.0 90.0)
           (-20.0 70.0)
  end
  begin
     id 10 
     name rtoes
     direction -1.53392e-011 -4.22077e-011 1   
     length 1.31983   
     axis -90 -7.62852e-016 -20   XYZ
    dof rx
    limits (-90.0 20.0)
  end
  begin
     id 11 
     name lowerback
     direction 0.0113257 0.999866 0.0118602   
     length 2.58694   
     axis 0 0 0   XYZ
    dof rx ry rz
    limits (-20.0 45.0)
           (-30.0 30.0)
           (-30.0 30.0)
  end
  begin
     id 12 
     name upperback
     direction -0.0164747 0.995193 -0.0965375   
     length 2.52368   
     axis 0 0 0   XYZ
    dof rx ry rz
    limits (-20.0 45.0)
           (-30.0 30.0)
           (-30.0 30.0)
  end
  begin
     id 13 
     name thorax
     direction -0.0194301 0.99433 -0.104552   
     length 2.56099   
     axis 0 0 0   XYZ
    dof rx ry rz
    limits (-20.0 45.0)
           (-30.0 30.0)
           (-30.0 30.0)
  end
  begin
     id 14 
     name lowerneck
     direction 0.0148543 0.995587 -0.092657   
     length 1.71582   
     axis 0 0 0   XYZ
    dof rx ry rz
    limits (-20.0 45.0)
           (-30.0 30.0)
           (-30.0 30.0)
  end
  begin
     id 15 
     name upperneck
     direction -0.0135467 0.993656 -0.111639   
     length 1.68937   
     axis 0 0 0   XYZ
    dof rx ry rz
    limits (-20.0 45.0)
           (-30.0 30.0)
           (-30.0 30.0)
  end
  begin
     id 16
     name head
     direction -0.00615349 0.999547 -0.029448  
     length 1.7462  
     axis 0 0 0   XYZ
    dof rx ry rz
    limits (-20.0 45.0)
           (-30.0 30.0)
           (-30.0 30.0)
  end
  begin
     id 17 
     name lclavicle
     direction 0.988267 0.149885 0.0293713  
     length 4.47222  
     axis 0 0 0   XYZ
    dof ry rz
    limits (-20.0 10.0)
           (0.0 20.0)
  end
  begin
     id 18 
     name lhumerus
     direction 1 -4.48986e-011 -1.14833e-027   
     length 5.37148   
     axis 180 -30 -90   XYZ
    dof rx ry rz
    limits (-60.0 90.0)
           (-90.0 90.0)
           (-90.0 90.0)
  end
  begin
     id 19
     name lradius
     direction 0.999998 0.00170963 -0.000987055   
     length 3.94212   
     axis 180 -30 -90   XYZ
    dof rx
    limits (-10.0 170.0)
  end
  begin
     id 20
     name lwrist
     direction 0.999998 7.53149e-005 -0.00194706   
     length 1.97106   
     axis 4.65056e-015 90 90   XYZ
    dof ry
    limits (-180.0 0.0)
 end
  begin
     id 21 
     name lhand
     direction 1 -4.48973e-011 -1.31746e-026   
     length 1.17917   
     axis 8.4065e-015 90 90   XYZ
    dof rx rz
    limits (-90.0 90.0)
           (-45.0 45.0)
  end
  begin
     id 22 
     name lfingers
     direction 1 -4.49107e-011 -2.63492e-026   
     length 0.950679   
     axis 1.6813e-014 90 90   XYZ
    dof rx
    limits (0.0 90.0)
  end
  begin
     id 23
     name lthumb
     direction 0.707107 -6.35048e-011 0.707107   
     length 1.36499   
     axis -90 45 2.85299e-015   XYZ
    dof rx rz
    limits (-45.0 45.0)
           (-45.0 45.0)
  end
  begin
     id 24 
     name rclavicle
     direction -0.996699 0.0642895 -0.0495725   
     length 4.62611  
     axis 0 0 0   XYZ 
    dof ry rz
    limits (-10.0 20.0)
           (-20.0 0.0)
  end
  begin
     id 25 
     name rhumerus
     direction -1 -4.48919e-011 -2.41059e-027  
     length 5.4981   
     axis 180 30 90   XYZ
    dof rx ry rz
    limits (-90.0 60.0)
           (-90.0 90.0)
           (-90.0 90.0)
  end
  begin
     id 26 
     name rradius
     direction -0.999999 0.00118101 -0.000681858   
     length 3.48381   
     axis 180 30 90   XYZ
    dof rx
    limits (-10.0 170.0)
  end
  begin
     id 27 
     name rwrist
     direction -0.999999 0.000321823 -0.00132288   
     length 1.7419   
     axis 4.65056e-015 -90 -90   XYZ
    dof ry
    limits (-180.0 0.0)
  end
  begin
     id 28
     name rhand
     direction -1 -4.49022e-011 -1.31746e-026   
     length 1.34932   
     axis 8.4065e-015 -90 -90   XYZ
    dof rx rz
    limits (-90.0 90.0)
           (-45.0 45.0)
  end
  begin
     id 29
     name rfingers
     direction -1 -4.49178e-011 -2.63492e-026   
     length 1.08785   
     axis 1.6813e-014 -90 -90   XYZ
    dof rx
    limits (0.0 90.0)
  end
  begin
     id 30
     name rthumb
     direction -0.707107 -6.34713e-011 0.707107   
     length 1.56195   
     axis -90 -45 -2.85299e-015   XYZ
    dof rx rz
    limits (-45.0 45.0)
           (-45.0 45.0)
  end
:hierarchy
  begin
    root lhipjoint rhipjoint lowerback
    lhipjoint lfemur
    lfemur ltibia
    ltibia lfoot
    lfoot ltoes
    rhipjoint rfemur
    rfemur rtibia
    rtibia rfoot
    rfoot rtoes
    lowerback upperback
    upperback thorax
    thorax lowerneck lclavicle rclavicle
    lowerneck upperneck
    upperneck head
    lclavicle lhumerus
    lhumerus lradius
    lradius lwrist
    lwrist lhand lthumb
    lhand lfingers
    rclavicle rhumerus
    rhumerus rradius
    rradius rwrist
    rwrist rhand rthumb
    rhand rfingers
  end

#!OML:ASF X:\für Bonn\!DataBase\2005_08_10_Bjorn_Final\c3d\bjorn.ASF
:FULLY-SPECIFIED
:DEGREES
16
root 5.3234 15.1832 -8.09583 16.1977 -5.1293 2.21486
lowerback 19.4265 -0.370622 -1.21581
upperback 10.085 -0.729629 -1.02425
thorax -0.00867533 -0.390398 -0.257445
lowerneck -9.09527 0.570338 2.81344
upperneck -28.1053 0.385487 -1.16315
head -7.19359 -0.0571523 -0.878679
rclavicle -5.86415e-015 -4.37326e-015
rhumerus -34.7047 -31.6191 -78.4798
rradius 58.8182
rwrist -180.315
rhand -8.07861e-013 4.69132e-013
rfingers 7.12502
rthumb 25.5904 -28.3008
lclavicle -5.86415e-015 -4.37326e-015
lhumerus -35.0856 6.34274 84.1934
lradius 61.0224
lwrist -0.611298
lhand 3.37139e-013 3.44295e-013
lfingers 7.12502
lthumb 25.5904 28.3008
rfemur -56.5741 -3.20401 11.1433
rtibia 95.5308
rfoot -38.0112 8.93218
rtoes -35.0058
lfemur -59.1503 2.10863 -21.0707
ltibia 95.9944
lfoot -32.9875 6.09606
ltoes -35.8532
17
root 5.32286 15.2961 -7.91819 16.457 -5.15851 2.23024
lowerback 18.7776 -0.37287 -1.29643
upperback 9.88294 -0.734585 -0.983101
thorax 0.103915 -0.396922 -0.171159
lowerneck -10.3441 0.521463 2.48101
upperneck -26.6197 0.352261 -0.867642
head -6.4963 -0.0513792 -0.712582
rclavicle 2.98177e-016 -3.37934e-015
rhumerus -34.6763 -30.6146 -78.6184
rradius 62.5728
rwrist -181.949
rhand -7.98319e-013 -9.95514e-013
rfingers 7.12502
rthumb 25.5904 -28.3008
lclavicle 2.98177e-016 -3.37934e-015
lhumerus -36.1495 6.4641 83.7506
lradius 64.8859
lwrist 0.108444
lhand -1.51076e-013 -1.0305e-012
lfingers 7.12502
lthumb 25.5904 28.3008
rfemur -55.5079 -3.29395 11.0341
rtibia 94.3611
rfoot -37.6968 9.52351
rtoes -34.9187
lfemur -58.2378 2.06417 -21.0547
ltibia 95.1386
lfoot -32.6064 5.84983
ltoes -36.2335
18
root 5.32299 15.4269 -7.72661 16.7557 -5.24847 2.18942
lowerback 17.9683 -0.354784 -1.32478
upperback 9.67368 -0.702345 -0.956722
thorax 0.292306 -0.383152 -0.138038
lowerneck -11.3857 0.457608 2.22679
upperneck -25.4103 0.294431 -0.619267
head -5.93734 -0.0638658 -0.580622
rclavicle 1.85864e-014 -3.27995e-015
rhumerus -34.6046 -29.7215 -78.6051
rradius 66.7715
rwrist -183.417
rhand 1.06867e-012 1.47419e-012
rfingers 7.12502
rthumb 25.5904 -28.3008
lclavicle 1.85864e-014 -3.27995e-015
lhumerus -37.1714 6.57749 83.1854
lradius 68.9892
lwrist 0.200002
lhand 4.92986e-013 1.4551e-012
lfingers 7.12502
lthumb 25.5904 28.3008
rfemur -54.3491 -3.37104 10.9747
rtibia 92.9723
rfoot -37.2933 10.1814
rtoes -34.6787
lfemur -57.1944 2.0834 -21.013
ltibia 94.0776
lfoot -32.1604 5.71293
ltoes -36.76
19
root 5.32452 15.5711 -7.52153 17.0404 -5.4135 2.07469
lowerback 17.1994 -0.314481 -1.30529
upperback 9.23208 -0.637888 -0.913546
thorax 0.213602 -0.350071 -0.117114
lowerneck -11.7942 0.369597 1.91733
upperneck -24.333 0.232101 -0.340468
head -5.52506 -0.0746985 -0.433864
rclavicle -1.88845e-015 7.15625e-015
rhumerus -35.0922 -28.7379 -78.1125
rradius 71.2776
rwrist -184.676
rhand 2.05146e-012 2.95792e-013
rfingers 7.12502
rthumb 25.5904 -28.3008
lclavicle -1.88845e-015 7.15625e-015
lhumerus -38.6417 6.68215 82.4783
lradius 73.2172
lwrist 0.0992747
lhand -8.14222e-013 3.56222e-013
lfingers 7.12502
lthumb 25.5904 28.3008
rfemur -53.0403 -3.3689 10.9654
rtibia 91.3779
rfoot -36.7959 10.8821
rtoes -34.2499
lfemur -55.9402 2.17865 -20.9327
ltibia 92.8023
lfoot -31.672 5.75213
ltoes -37.6463
20
root 5.32643 15.7304 -7.30214 17.2692 -5.6547 1.93866
lowerback 16.146 -0.236873 -1.29293
upperback 8.98651 -0.518914 -0.883602
thorax 0.496775 -0.292334 -0.117059
lowerneck -12.334 0.278645 1.72523
upperneck -23.3642 0.139134 -0.146692
head -5.13292 -0.107734 -0.336319
rclavicle 1.68967e-015 9.64106e-015
rhumerus -35.2769 -27.9002 -77.6407
rradius 76.0243
rwrist -185.727
rhand 7.98319e-013 1.87653e-013
rfingers 7.12502
rthumb 25.5904 -28.3008
lclavicle 1.68967e-015 9.64106e-015
lhumerus -39.7801 6.81084 81.7129
lradius 77.509
lwrist 0.0150186
lhand -2.8625e-013 5.40694e-014
lfingers 7.12502
lthumb 25.5904 28.3008
rfemur -51.5708 -3.34774 10.9623
rtibia 89.5875
rfoot -36.2562 11.5426
rtoes -34.0413
lfemur -54.4256 2.31563 -20.8472
ltibia 91.2704
lfoot -31.1707 5.72037
ltoes -38.2965
21
root 5.32568 15.8995 -7.07359 17.4896 -5.92231 1.85712
lowerback 14.8338 -0.14526 -1.36649
upperback 8.88036 -0.385113 -0.85418
thorax 1.07064 -0.232035 -0.0705773
lowerneck -12.8966 0.184815 1.5024
upperneck -22.5345 0.0480163 0.0643553
head -4.78538 -0.139252 -0.23013
rclavicle 3.03147e-015 1.19271e-015
rhumerus -35.3774 -27.1654 -77.0726
rradius 81.1386
rwrist -186.058
rhand 2.25819e-013 1.30403e-013
rfingers 7.12502
rthumb 25.5904 -28.3008
lclavicle 3.03147e-015 1.19271e-015
lhumerus -40.683 6.97406 80.893
lradius 82.0106
lwrist -0.130431
lhand -1.27222e-014 2.22639e-014
lfingers 7.12502
lthumb 25.5904 28.3008
rfemur -50.0273 -3.3162 10.8958
rtibia 87.6431
rfoot -35.5343 12.3412
rtoes -33.461
lfemur -52.7735 2.46702 -20.8203
ltibia 89.5174
lfoot -30.6556 5.67576
ltoes -39.0445
22
root 5.3244 16.079 -6.83643 17.6974 -6.19374 1.79273
lowerback 13.5059 -0.0543272 -1.43447
upperback 8.66845 -0.249805 -0.849686
thorax 1.54696 -0.169173 -0.0488969
lowerneck -13.0048 0.0851879 1.32975
upperneck -21.9224 -0.0477861 0.256368
head -4.57558 -0.177285 -0.140077
rclavicle -3.37934e-015 -9.44227e-015
rhumerus -35.7005 -26.5256 -76.2772
rradius 86.379
rwrist -185.317
rhand -9.79611e-013 4.67542e-013
rfingers 7.12502
rthumb 25.5904 -28.3008
lclavicle -3.37934e-015 -9.44227e-015
lhumerus -41.759 7.03854 79.9437
lradius 86.5556
lwrist -0.693152
lhand 8.96916e-013 7.85597e-013
lfingers 7.12502
lthumb 25.5904 28.3008
rfemur -48.4021 -3.28751 10.8225
rtibia 85.5472
rfoot -34.6841 13.1256
rtoes -32.6219
lfemur -50.9974 2.63295 -20.8191
ltibia 87.5602
lfoot -30.0981 5.73655
ltoes -39.763
23
root 5.3213 16.2623 -6.59033 17.9401 -6.50002 1.70758
lowerback 12.094 0.0539514 -1.50317
upperback 8.33829 -0.0886498 -0.845088
thorax 1.94995 -0.092522 -0.0248604
lowerneck -13.863 -0.0249658 1.21471
upperneck -19.9236 -0.189722 0.394086
head -4.28365 -0.23049 -0.072594
rclavicle 5.41688e-015 5.56597e-015
rhumerus -36.152 -26.0552 -75.2037
rradius 91.6492
rwrist -184.849
rhand -1.61254e-012 -6.13847e-013
rfingers 7.12502
rthumb 25.5904 -28.3008
lclavicle 5.41688e-015 5.56597e-015
lhumerus -42.9785 7.05871 78.8967
lradius 90.8996
lwrist -2.02167
lhand 7.72875e-013 -6.04305e-013
lfingers 7.12502
lthumb 25.5904 28.3008
rfemur -46.7528 -3.20668 10.7588
rtibia 83.3251
rfoot -33.7751 13.9306
rtoes -31.6279
lfemur -49.1935 2.86997 -20.791
ltibia 85.4302
lfoot -29.5289 5.51132
ltoes -40.1543
